<?xml version="1.0" encoding="UTF-8"?>
<svg width="16px" height="20px" viewBox="0 0 16 20" version="1.1" xmlns="http://www.w3.org/2000/svg" xmlns:xlink="http://www.w3.org/1999/xlink">
    <!-- Generator: Sketch 60 (88103) - https://sketch.com -->
    <title>clear</title>
    <desc>Created with Sketch.</desc>
    <g id="页面-1" stroke="none" stroke-width="1" fill="none" fill-rule="evenodd">
        <g id="画布-画笔" transform="translate(-30.000000, -420.000000)" fill="#A6AEB7" fill-rule="nonzero">
            <g id="clear" transform="translate(30.000000, 420.000000)">
                <path d="M14.972272,8.59221224 C14.972272,7.78776209 14.3619892,7.14591356 13.5971013,7.14591356 L10.8467601,7.14591356 L10.8467601,1.44629867 C10.8467601,0.641848524 10.2364773,0 9.47158945,0 C8.70670164,0 8.09641881,0.641848524 8.09641881,1.44629867 L8.09641881,7.14591356 L5.50068253,7.14591356 C4.73579472,7.14591356 4.1255119,7.78776209 4.1255119,8.59221224 L4.1255119,10.0385109 L15.0455059,10.0385109 L15.0455059,8.59221224 L14.972272,8.59221224 L14.972272,8.59221224 L14.972272,8.59221224 Z M14.972272,11.4848096 C14.7444331,11.4848096 4.05227796,11.4848096 4.05227796,11.4848096 C4.05227796,11.4848096 3.28739015,20 0,20 L3.89767298,20 C5.42744859,20 6.11096536,15.3444587 6.11096536,15.3444587 C6.11096536,15.3444587 6.79448212,19.5207531 6.18419929,20 L8.32425774,20 C8.2510238,20 8.32425774,20 8.55209666,20 C9.61805732,19.8373984 9.77266231,14.7026102 9.77266231,14.7026102 C9.77266231,14.7026102 10.838623,19.9229782 10.6921551,19.9229782 C10.1551062,19.9229782 9.08914554,19.9229782 8.55209666,19.9229782 L8.55209666,19.9229782 L11.6848818,19.9229782 C11.5302768,19.9229782 11.6848818,19.9229782 11.9127207,19.9229782 C12.9054475,19.6833547 12.9786814,15.9092854 12.9786814,15.9092854 C12.9786814,15.9092854 13.4343593,19.9229782 13.2878914,19.9229782 C12.9054475,19.9229782 12.2951647,19.9229782 11.9127207,19.9229782 L11.8394868,19.9229782 L13.6703353,19.9229782 C16.4206765,20 16.5752815,15.9863072 14.972272,11.4848096 L14.972272,11.4848096 Z" id="形状"></path>
            </g>
        </g>
    </g>
</svg>