<?xml version="1.0" encoding="UTF-8"?>
<svg width="20px" height="21px" viewBox="0 0 20 21" version="1.1" xmlns="http://www.w3.org/2000/svg" xmlns:xlink="http://www.w3.org/1999/xlink">
    <!-- Generator: Sketch 60 (88103) - https://sketch.com -->
    <title>形状 2</title>
    <desc>Created with Sketch.</desc>
    <g id="页面-1" stroke="none" stroke-width="1" fill="none" fill-rule="evenodd">
        <g id="画布-画笔" transform="translate(-30.000000, -240.000000)" fill="#A6AEB7" fill-rule="nonzero">
            <g id="形状-2" transform="translate(30.000000, 240.500000)">
                <path d="M18.8999542,7.98728442 C19.1545607,7.7369778 19.1545607,7.33047984 18.8999542,7.08017321 L11.8891079,0.187729969 C11.6345014,-0.0625766564 11.2210203,-0.0625766564 10.9664138,0.187729969 L0.76381968,10.2180171 C-0.25460656,11.2192436 -0.25460656,12.8412305 0.76381968,13.842457 L6.30405843,19.2550875 C6.79290302,19.7316713 7.45284323,20 8.14129937,20 L16.5188736,20 C16.8793965,20 17.1706664,19.7136492 17.1706664,19.359215 C17.1706664,19.1829992 17.0973397,19.0228029 16.9792023,18.9066607 C16.8610648,18.7905184 16.6981166,18.7184301 16.5188736,18.7184301 L11.1313988,18.7184301 C9.97039289,18.7184301 9.38785308,17.33874 10.2087046,16.5297489 L18.8999542,7.98728442 L18.8999542,7.98728442 Z M8.30003162,16.8901562 C7.7900513,17.400251 6.96388319,17.400251 6.45390288,16.8901562 L2.20066705,12.6380061 C1.69068674,12.1279114 1.69068674,11.3015578 2.20066705,10.7914631 L4.80972634,8.18181818 L10.9090909,14.2825517 L8.30003162,16.8901562 Z" id="形状"></path>
            </g>
        </g>
    </g>
</svg>