<?xml version="1.0" encoding="UTF-8"?>
<svg width="22px" height="20px" viewBox="0 0 22 20" version="1.1" xmlns="http://www.w3.org/2000/svg" xmlns:xlink="http://www.w3.org/1999/xlink">
    <!-- Generator: Sketch 60 (88103) - https://sketch.com -->
    <title>画笔备份</title>
    <desc>Created with Sketch.</desc>
    <g id="页面-1" stroke="none" stroke-width="1" fill="none" fill-rule="evenodd">
        <g id="画布-图形" transform="translate(-29.000000, -120.000000)" fill="#A6AEB7" fill-rule="nonzero">
            <g id="画笔备份" transform="translate(30.000000, 120.000000)">
                <path d="M4.95781579,20 C4.16485055,20 3.30580487,19.8795011 2.57892006,19.6385034 C0.926909136,19.0962586 0.0678634548,18.0117689 0.00178301784,16.6260321 C-0.0642974191,14.5173022 1.71987438,13.794309 3.10756356,13.2520642 C4.4291723,12.7098193 5.1560571,12.4085722 5.1560571,11.5048308 C5.1560571,10.4203411 3.10756356,9.51659972 2.24851788,9.39610087 C1.91811569,9.27560201 1.71987438,8.97435488 1.71987438,8.67310775 C1.78595482,8.37186061 2.116357,8.1308629 2.44675919,8.19111233 C3.63620705,8.37186061 6.47766584,9.51659972 6.47766584,11.5048308 C6.47766584,13.2520642 4.89173535,13.8545585 3.63620705,14.3365539 C2.18243744,14.9390481 1.25731132,15.3607941 1.32339176,16.6260321 C1.32339176,17.5297735 1.91811569,18.1925172 2.97540268,18.5540138 C4.69349404,19.156508 7.27063109,18.734762 7.93143546,18.0117689 C8.1957572,17.7707712 8.59223983,17.7105218 8.85656157,17.9515195 C9.12088332,18.1925172 9.18696376,18.5540138 8.92264201,18.7950115 C8.26183764,19.5180046 6.60982672,20 4.95781579,20 L4.95781579,20 Z" id="路径"></path>
                <path d="M9.12776048,15.5639441 C9.01198473,15.6865914 9.18564836,15.9932097 9.41719986,16.1771807 C9.64875137,16.3611516 9.93819075,16.4224753 10.0539665,16.299828 L12.4852573,14.337471 L10.1697423,12.5590849 L9.12776048,15.5639441 L9.12776048,15.5639441 Z M20.3001207,0.294353553 C19.663354,-0.196235702 18.737148,-0.0735883881 18.274045,0.662295493 L10.8065089,11.5779064 L13.122024,13.3562924 L20.6474479,2.44068154 C21.1105509,1.76612132 20.9368873,0.784942807 20.3001207,0.294353553 L20.3001207,0.294353553 Z" id="形状"></path>
            </g>
        </g>
    </g>
</svg>