<?xml version="1.0" encoding="UTF-8"?>
<svg width="21px" height="21px" viewBox="0 0 21 21" version="1.1" xmlns="http://www.w3.org/2000/svg" xmlns:xlink="http://www.w3.org/1999/xlink">
    <!-- Generator: Sketch 60 (88103) - https://sketch.com -->
    <title>shape</title>
    <desc>Created with Sketch.</desc>
    <g id="页面-1" stroke="none" stroke-width="1" fill="none" fill-rule="evenodd">
        <g id="画布-画笔" transform="translate(-30.000000, -180.000000)" fill="#A6AEB7" fill-rule="nonzero">
            <g id="shape" transform="translate(30.000000, 180.500000)">
                <path d="M16.4634349,6.10061799 L16.4634349,1.26061236 C16.4634349,0.765611782 16.0623369,0.36585522 15.5700193,0.36585522 L1.26061236,0.36585522 C0.765611782,0.36585522 0.36585522,0.765611782 0.36585522,1.26061236 L0.36585522,15.5700193 C0.36585522,16.0636784 0.765611782,16.4634349 1.26061236,16.4634349 L6.53122825,16.4634349 C7.84988832,18.4796568 10.12233,19.8170974 12.7059915,19.8170974 C16.7746548,19.8170974 20.0840489,16.5063618 20.0840489,12.43904 C20.0840489,9.74403686 18.6272179,7.38842437 16.4634349,6.10061799 Z M1.7073202,15.12197 L1.7073202,1.7073202 L15.12197,1.7073202 L15.12197,5.47549531 C14.3627008,5.21122671 13.5524559,5.06098263 12.7059915,5.06098263 C8.63866972,5.06098263 5.32927563,8.37171819 5.32927563,12.43904 C5.32927563,13.3861143 5.51573926,14.2889202 5.84171525,15.12197 L1.7073202,15.12197 Z M12.7059915,18.4756324 C9.37915839,18.4756324 6.6707406,15.7672146 6.6707406,12.43904 C6.6707406,9.1108654 9.37915839,6.40244761 12.7059915,6.40244761 C16.0328247,6.40244761 18.7425839,9.1108654 18.7425839,12.43904 C18.7425839,15.7672146 16.0341661,18.4756324 12.7059915,18.4756324 Z" id="形状"></path>
            </g>
        </g>
    </g>
</svg>