<?xml version="1.0" encoding="UTF-8"?>
<svg width="20px" height="20px" viewBox="0 0 20 20" version="1.1" xmlns="http://www.w3.org/2000/svg" xmlns:xlink="http://www.w3.org/1999/xlink">
    <!-- Generator: Sketch 60 (88103) - https://sketch.com -->
    <title>吸管</title>
    <desc>Created with Sketch.</desc>
    <g id="页面-1" stroke="none" stroke-width="1" fill="none" fill-rule="evenodd">
        <g id="画布-画笔" transform="translate(-1645.000000, -742.000000)" fill-rule="nonzero">
            <g id="吸管" transform="translate(1645.000000, 742.000000)">
                <path d="M12.4731023,3.7037037 L1.63802451,14.5211604 L1.63802446,14.5211605 C1.21914814,14.9420148 0.969322042,15.502839 0.936195999,16.0966731 L0.555906221,16.478225 L0.555906155,16.4782251 C-0.228107741,17.3285925 -0.176597257,18.6556303 0.67095625,19.4422587 C1.47201012,20.1857163 2.7082492,20.1859399 3.50956596,19.4427724 L3.89199387,19.0612205 L3.891994,19.0612205 C4.48441964,19.0302933 5.04417741,18.7792862 5.46229512,18.3570628 L16.2962963,7.54068626 L12.4730938,3.7037037 L12.4731023,3.7037037 Z" id="路径" fill="#FFFFFF"></path>
                <path d="M16.6261041,0 C17.0588588,0 17.4737556,0.170288673 17.7794143,0.473485804 L18.7804195,1.46199206 C19.4179971,2.09226894 19.4190458,3.11400146 18.7825202,3.74531505 L16.4580443,6.04109819 L16.8382787,6.41697866 L16.9265101,6.51458327 L16.9265102,6.51458332 C17.2510682,6.9280438 17.2132351,7.51574442 16.8382788,7.88520012 L16.1019677,8.61204317 L16.1019677,8.61204318 C15.6924968,9.01727801 15.0284203,9.01820766 14.6177898,8.61411985 L14.5936313,8.5902379 L5.42596243,17.6113885 C5.06043243,17.9748088 4.58566439,18.2073999 4.07413163,18.2759308 L3.88191327,18.2935826 L3.5058787,18.663233 L3.50587879,18.6632329 C3.12224461,19.0460152 2.59934074,19.2607119 2.05426332,19.2592519 L2.05426325,19.2592519 C0.91899815,19.2585248 -0.000727831767,18.3481639 4.32195822e-07,17.2258983 C0.000310748089,16.7481123 0.170918146,16.2857117 0.481854001,15.9199235 L0.601596589,15.7911685 L0.975528764,15.4225548 C1.00388885,14.9106494 1.201359,14.4247034 1.53432833,14.0363628 L1.66562495,13.8951477 L10.8353863,4.87192851 L10.7313993,4.77017067 L10.5496848,4.59053689 L10.4614534,4.49189409 L10.4614534,4.49189409 C10.1370948,4.07854313 10.1744552,3.49120755 10.5486343,3.12127729 L11.2838966,2.39443424 L11.2838966,2.3944343 C11.6940666,1.98908266 12.3589531,1.98908266 12.7691256,2.39443417 L13.1483113,2.77031464 L15.4717385,0.473492338 L15.4717386,0.473492292 C15.7775474,0.17023359 16.192939,0 16.6260999,0 L16.6261041,0 Z M11.5769501,5.60706873 L2.40824728,14.6282193 C2.21182734,14.8234283 2.08263065,15.0736698 2.03851496,15.3426022 L2.02380974,15.4786255 L2.00175189,15.8752745 L1.34526758,16.5242416 L1.34526756,16.5242416 C0.958189307,16.9176466 0.967012445,17.5467602 1.3649744,17.9294061 C1.71827904,18.2691156 2.26862721,18.305491 2.66453845,18.0153055 L2.76432385,17.9280844 L3.42500802,17.2760023 L3.82730028,17.2552353 C4.10354771,17.2406985 4.36614192,17.1410173 4.58146933,16.9665759 L4.68545631,16.8741632 L13.849974,7.85508122 L11.5769648,5.6049845 L11.5769501,5.60706873 Z" id="形状" fill="#6D7278"></path>
            </g>
        </g>
    </g>
</svg>