<?xml version="1.0" encoding="UTF-8"?>
<svg width="15px" height="15px" viewBox="0 0 15 15" version="1.1" xmlns="http://www.w3.org/2000/svg" xmlns:xlink="http://www.w3.org/1999/xlink">
    <!-- Generator: Sketch 60 (88103) - https://sketch.com -->
    <title>编组 4</title>
    <desc>Created with Sketch.</desc>
    <g id="页面-1" stroke="none" stroke-width="1" fill="none" fill-rule="evenodd">
        <g id="画布-画笔" transform="translate(-34.000000, -365.000000)" fill-rule="nonzero">
            <g id="编组-4" transform="translate(33.285714, 365.000000)">
                <polygon id="路径" fill="#B620E0" points="1 9.91267592 5.1288569 9.91267592 5.1288569 14.0714286 1 14.0714286"></polygon>
                <polygon id="路径备份" fill="#000000" points="1 5 5.1288569 5 5.1288569 9.15875266 1 9.15875266"></polygon>
                <polygon id="路径备份-4" fill="#2374B1" points="1 0 5.1288569 0 5.1288569 4.15875266 1 4.15875266"></polygon>
                <polygon id="路径" fill="#F5BB1C" points="5.76190476 9.96580339 10.047619 9.96580339 10.047619 14.0714286 5.76190476 14.0714286"></polygon>
                <polygon id="路径备份-2" fill="#6236FF" points="5.76190476 5.05312747 10.047619 5.05312747 10.047619 9.15875266 5.76190476 9.15875266"></polygon>
                <polygon id="路径备份-5" fill="#F3F90D" points="5.76190476 0.0531274706 10.047619 0.0531274706 10.047619 4.15875266 5.76190476 4.15875266"></polygon>
                <polygon id="路径" fill="#E02020" points="11.0249931 9.96580339 15.2857143 9.96580339 15.2857143 14.0714286 11.0249931 14.0714286"></polygon>
                <polygon id="路径备份-3" fill="#32C5FF" points="11.0249931 5.05312747 15.2857143 5.05312747 15.2857143 9.15875266 11.0249931 9.15875266"></polygon>
                <polygon id="路径备份-6" fill="#6DD400" points="11.0249931 0.0531274706 15.2857143 0.0531274706 15.2857143 4.15875266 11.0249931 4.15875266"></polygon>
            </g>
        </g>
    </g>
</svg>