<?xml version="1.0" encoding="UTF-8"?>
<svg width="27px" height="20px" viewBox="0 0 27 20" version="1.1" xmlns="http://www.w3.org/2000/svg" xmlns:xlink="http://www.w3.org/1999/xlink">
    <!-- Generator: Sketch 60 (88103) - https://sketch.com -->
    <title>返回</title>
    <desc>Created with Sketch.</desc>
    <g id="页面-1" stroke="none" stroke-width="1" fill="none" fill-rule="evenodd">
        <g id="画布-画布未修改弹框提醒" transform="translate(-923.000000, -30.000000)" fill="#A6AEB7" fill-rule="nonzero">
            <g id="编组-2" transform="translate(923.000000, 30.000000)">
                <g id="返回">
                    <path d="M18.836393,4.00001629 L18.836393,5.60001815 C22.1563968,5.60001815 24.836393,8.28002127 24.836393,11.6000251 C24.836393,14.920029 22.1563968,17.6000321 18.836393,17.6000321 L18.836393,19.200034 C23.0363978,19.200034 26.4364018,15.80003 26.4364018,11.6000251 C26.4364018,7.40002025 23.0363978,4.00001629 18.836393,4.00001629 L18.836393,4.00001629 Z" id="路径"></path>
                    <path d="M19.0363932,19.200034 L7.03637923,19.200034 C6.59637872,19.200034 6.2363783,18.8400336 6.2363783,18.400033 C6.2363783,17.9600325 6.59637872,17.6000321 7.03637923,17.6000321 L19.0363932,17.6000321 C19.4763937,17.6000321 19.8363941,17.9600325 19.8363941,18.400033 C19.8363941,18.8400336 19.4763937,19.200034 19.0363932,19.200034 Z M19.0363932,5.60001815 L3.23637481,5.60001815 C2.7963743,5.60001815 2.43637388,5.24001773 2.43637388,4.80001722 C2.43637388,4.36001671 2.7963743,4.00001629 3.23637481,4.00001629 L19.0363932,4.00001629 C19.4763937,4.00001629 19.8363941,4.36001671 19.8363941,4.80001722 C19.8363941,5.24001773 19.4763937,5.60001815 19.0363932,5.60001815 Z" id="形状"></path>
                    <path d="M0.876372061,5.36001787 C0.556371689,5.0400175 0.556371689,4.54001692 0.876372061,4.22001655 L4.27637602,0.820012591 C4.59637639,0.500012218 5.09637697,0.500012218 5.41637734,0.820012591 C5.73637772,1.14001296 5.73637772,1.64001354 5.41637734,1.96001392 L2.01637339,5.36001787 C1.69637302,5.68001825 1.19637243,5.68001825 0.876372061,5.36001787 L0.876372061,5.36001787 Z" id="路径"></path>
                    <path d="M0.876372061,4.24001657 C1.19637243,3.9200162 1.69637302,3.9200162 2.01637339,4.24001657 L5.41637734,7.64002053 C5.73637772,7.9600209 5.73637772,8.46002148 5.41637734,8.78002185 C5.09637697,9.10002223 4.59637639,9.10002223 4.27637602,8.78002185 L0.876372061,5.3800179 C0.556371689,5.06001752 0.556371689,4.54001692 0.876372061,4.24001657 L0.876372061,4.24001657 Z" id="路径"></path>
                </g>
            </g>
        </g>
    </g>
</svg>